<svg xmlns="http://www.w3.org/2000/svg" x="0px" y="0px"
width="70" height="70"
viewBox="0 0 172 172"
style=" fill:#000000;"><g fill="none" fill-rule="nonzero" stroke="none" stroke-width="1" stroke-linecap="butt" stroke-linejoin="miter" stroke-miterlimit="10" stroke-dasharray="" stroke-dashoffset="0" font-family="none" font-weight="none" font-size="none" text-anchor="none" style="mix-blend-mode: normal"><path d="M0,172v-172h172v172z" fill="none"></path><g fill="#2ecc71"><path d="M53.965,13.76c-5.41531,0 -10.44094,2.98313 -13.115,7.74l-31.9275,56.8675c-2.67406,4.74344 -2.67406,10.52156 0,15.265l31.9275,56.8675c2.67406,4.75688 7.69969,7.74 13.115,7.74h64.07c5.41531,0 10.44094,-2.98312 13.115,-7.74l31.9275,-56.8675c2.67406,-4.74344 2.67406,-10.52156 0,-15.265l-31.9275,-56.8675c-2.67406,-4.75687 -7.69969,-7.74 -13.115,-7.74zM53.965,20.64h64.07c2.9025,0 5.60344,1.54531 7.095,4.1925l32.035,56.8675c1.49156,2.64719 1.49156,5.95281 0,8.6l-32.035,56.8675c-1.49156,2.64719 -4.1925,4.1925 -7.095,4.1925h-64.07c-2.9025,0 -5.60344,-1.54531 -7.095,-4.1925l-32.035,-56.8675c-1.49156,-2.64719 -1.49156,-5.95281 0,-8.6l32.035,-56.8675c1.49156,-2.64719 4.1925,-4.1925 7.095,-4.1925zM68.8,51.6v10.32h-6.88v6.88h-10.32v6.88h10.32v6.88h-10.32v6.88h10.32v6.88h-10.32v6.88h10.32v6.88h6.88v10.32h6.88v-10.32h6.88v10.32h6.88v-10.32h6.88v10.32h6.88v-10.32h6.88v-6.88h10.32v-6.88h-10.32v-6.88h10.32v-6.88h-10.32v-6.88h10.32v-6.88h-10.32v-6.88h-6.88v-10.32h-6.88v10.32h-6.88v-10.32h-6.88v10.32h-6.88v-10.32zM68.8,68.8h34.4v34.4h-34.4zM75.68,75.68v20.64h20.64v-20.64z"></path></g></g></svg>