<svg xmlns="http://www.w3.org/2000/svg" x="0px" y="0px"
width="70" height="70"
viewBox="0 0 172 172"><g fill="none" fill-rule="nonzero" stroke="none" stroke-width="1" stroke-linecap="butt" stroke-linejoin="miter" stroke-miterlimit="10" stroke-dasharray="" stroke-dashoffset="0" font-family="none" font-weight="none" font-size="none" text-anchor="none" style="mix-blend-mode: normal"><path d="M0,172v-172h172v172z" fill="none"></path><g fill="#2ecc71"><path d="M51.385,-0.1075c-0.1075,0.02687 -0.215,0.06719 -0.3225,0.1075c-1.00781,0.20156 -1.88125,0.86 -2.365,1.77375c-0.47031,0.92719 -0.51062,2.00219 -0.1075,2.95625l1.3975,3.44c-1.22281,2.98313 -5.84531,13.15531 -16.2325,23.5425c-10.77687,10.77688 -24.77875,16.32656 -27.735,17.415l-1.29,-0.5375c-1.15562,-0.60469 -2.56656,-0.51062 -3.62812,0.25531c-1.06156,0.77937 -1.58563,2.08281 -1.37063,3.37281c0.22844,1.29 1.15563,2.33812 2.41875,2.71437l1.29,0.5375c1.30344,3.01 7.095,17.13281 7.095,30.53c0,13.8675 -8.82844,30.08656 -9.7825,31.82c-0.04031,0.04031 -0.06719,0.06719 -0.1075,0.1075c-1.075,1.02125 -1.38406,2.62031 -0.7525,3.96406c0.645,1.35719 2.06938,2.13656 3.5475,1.94844c2.32469,0.67188 17.02531,5.20031 28.2725,16.4475c11.13969,11.13969 15.695,25.62531 16.4475,28.165c0,0.04031 0,0.06719 0,0.1075c-0.13437,1.42438 0.645,2.78156 1.935,3.41313c1.29,0.61812 2.83531,0.37625 3.87,-0.61813c0.01344,-0.01344 0.17469,-0.18812 0.215,-0.215c1.46469,-0.86 15.91,-9.03 31.82,-9.03c15.70844,0 29.93875,7.88781 31.7125,8.9225c0.04031,0.04031 0.06719,0.06719 0.1075,0.1075c1.00781,1.06156 2.58,1.35719 3.91031,0.7525c1.33031,-0.60469 2.13656,-1.98875 2.00219,-3.44c0.59125,-2.17687 4.78375,-16.39375 16.555,-28.165c11.73094,-11.73094 25.92094,-15.84281 28.165,-16.4475c1.45125,0.18813 2.84875,-0.56437 3.50719,-1.88125c0.65844,-1.30344 0.41656,-2.87562 -0.60469,-3.92375c-0.06719,-0.08062 -0.13437,-0.14781 -0.215,-0.215c-0.33594,-0.5375 -1.58562,-2.74125 -3.225,-7.525c-1.85437,-5.44219 -3.7625,-13.55844 -3.7625,-24.295c0,-17.97937 2.43219,-27.23781 3.3325,-30.1l2.365,-0.9675c1.26313,-0.37625 2.19031,-1.42437 2.41875,-2.71437c0.215,-1.29 -0.30906,-2.59344 -1.37062,-3.37281c-1.06156,-0.76594 -2.4725,-0.86 -3.62813,-0.25531l-2.4725,1.075c-2.91594,-1.27656 -15.56062,-7.02781 -24.6175,-15.5875c-13.19562,-12.47 -17.13281,-24.34875 -17.845,-26.7675l1.075,-2.58c0.51063,-1.12875 0.37625,-2.45906 -0.36281,-3.45344c-0.72562,-1.00781 -1.94844,-1.53188 -3.18469,-1.38406c-0.14781,0.02687 -0.29562,0.06719 -0.43,0.1075c-1.08844,0.28219 -1.97531,1.08844 -2.365,2.15l-0.9675,2.365c-2.29781,1.08844 -13.46437,5.97969 -33.11,6.7725c-12.30875,0.49719 -23.99937,-4.47469 -26.66,-5.6975l-1.3975,-3.44c-0.49719,-1.35719 -1.78719,-2.2575 -3.225,-2.2575c-0.1075,0 -0.215,0 -0.3225,0zM112.5525,13.115l-6.88,16.555h-0.1075l-0.215,0.5375c-2.82187,0.86 -10.14531,2.795 -19.35,2.795c-9.20469,0 -16.52812,-1.935 -19.35,-2.795l-0.215,-0.5375h-0.1075l-6.3425,-15.3725c5.22719,1.96188 13.38375,4.27313 23.22,3.87c14.37813,-0.57781 23.865,-3.1175 29.3475,-5.0525zM118.5725,16.34c2.43219,5.44219 7.25625,13.69281 16.8775,22.79c7.32344,6.92031 15.46656,11.5025 20.7475,14.0825l-16.4475,6.7725l-0.5375,0.215c-2.59344,-1.54531 -8.4925,-5.375 -14.405,-11.2875l-0.7525,-0.86c-6.54406,-6.7725 -10.99187,-13.67937 -12.1475,-15.48l0.1075,-0.3225zM53.535,16.6625l6.45,15.5875l0.215,0.43c-1.26312,2.00219 -6.83969,10.70969 -11.825,15.695c-4.98531,4.98531 -13.69281,10.56188 -15.695,11.825l-0.43,-0.215l-17.3075,-7.2025c5.85875,-2.60687 15.13063,-7.49812 23.7575,-16.125c7.98188,-7.96844 12.40281,-15.19781 14.835,-19.995zM69.9825,38.27c3.73563,0.90031 9.04344,1.8275 16.0175,1.8275c6.9875,0 12.28188,-0.92719 16.0175,-1.8275l-6.5575,15.91c-1.98875,0.40313 -6.08719,1.1825 -9.46,1.1825c-3.37281,0 -7.47125,-0.77937 -9.46,-1.1825zM108.6825,40.42c2.37844,3.41313 6.07375,8.33125 11.18,13.4375c4.56875,4.56875 8.54625,7.57875 11.5025,9.5675l-16.2325,6.7725c-1.42437,-0.90031 -3.91031,-2.62031 -6.88,-5.59c-3.07719,-3.07719 -5.34812,-6.1275 -6.45,-7.74zM63.425,40.635l6.7725,16.34c-0.92719,1.57219 -2.80844,4.63594 -5.59,7.4175c-2.82187,2.82188 -6.03344,4.85094 -7.6325,5.805l-16.34,-6.7725c3.61469,-2.43219 8.65375,-6.07375 12.685,-10.105c4.05813,-4.05812 7.69969,-9.08375 10.105,-12.685zM12.1475,59.125l17.5225,7.2025v0.1075l0.3225,0.1075c0.45688,2.64719 2.2575,13.33 2.2575,19.4575c0,6.1275 -1.80062,16.81031 -2.2575,19.4575l-0.3225,0.1075v0.1075l-19.0275,7.8475c2.94281,-6.24844 6.7725,-16.38031 6.7725,-27.52c0,-11.12625 -3.03687,-20.94906 -5.2675,-26.875zM159.745,59.125c-1.10187,4.81063 -2.4725,13.15531 -2.4725,26.875c0,11.55625 2.00219,20.46531 4.085,26.5525c0.20156,0.57781 0.26875,0.73906 0.43,1.1825l-19.4575,-8.0625v-0.1075l-0.43,-0.215c-0.7525,-3.1175 -2.2575,-10.46781 -2.2575,-19.35c0,-8.88219 1.505,-16.2325 2.2575,-19.35l0.43,-0.215v-0.1075zM79.6575,61.705c1.78719,0.29563 3.9775,0.5375 6.3425,0.5375c2.365,0 4.55531,-0.24187 6.3425,-0.5375l-6.3425,15.1575zM98.7925,64.285c1.10188,1.505 2.53969,3.29219 4.515,5.2675c1.69313,1.69313 3.07719,2.87563 4.3,3.7625l-15.1575,6.235zM73.4225,64.6075l6.1275,14.9425l-14.9425,-6.235c1.42438,-0.94062 3.06375,-2.20375 4.945,-4.085c1.74688,-1.74687 2.95625,-3.26531 3.87,-4.6225zM37.5175,69.66l16.985,7.095c0.61813,1.43781 2.15,5.16 2.15,9.245c0,4.085 -1.53187,7.80719 -2.15,9.245l-16.985,7.095c0.7525,-4.25969 1.72,-10.56187 1.72,-16.34c0,-5.83187 -0.99437,-12.1475 -1.72,-16.34zM134.0525,69.875c-0.68531,3.72219 -1.3975,9.05688 -1.3975,16.125c0,7.04125 0.80625,12.38938 1.505,16.125l-16.34,-6.665c-0.43,-1.72 -1.29,-5.44219 -1.29,-9.46c0,-4.01781 0.86,-7.74 1.29,-9.46zM110.1875,79.765c-0.30906,1.69313 -0.5375,3.72219 -0.5375,6.235c0,2.56656 0.24188,4.58219 0.5375,6.235l-15.05,-6.235zM62.8875,80.195l14.0825,5.805l-14.0825,5.805c0.36281,-1.69312 0.645,-3.655 0.645,-5.805c0,-2.20375 -0.26875,-4.11187 -0.645,-5.805zM79.55,92.45l-6.02,14.405c-0.94062,-1.33031 -2.0425,-2.795 -3.5475,-4.3c-1.73344,-1.73344 -3.39969,-3.02344 -4.945,-4.085zM92.45,92.45l14.5125,6.02c-1.42437,0.99438 -2.98312,2.23063 -4.6225,3.87c-1.63937,1.63938 -2.87562,3.19813 -3.87,4.6225zM86,95.1375l6.235,15.05c-1.65281,-0.29562 -3.66844,-0.5375 -6.235,-0.5375c-2.62031,0 -4.58219,0.33594 -6.235,0.645zM56.975,101.8025c1.34375,0.63156 4.71656,2.24406 8.17,5.6975c2.96969,2.96969 4.46125,5.83188 5.16,7.31l-7.095,17.2c-2.15,-2.94281 -5.40187,-7.12187 -10.4275,-12.1475c-5.14656,-5.16 -9.675,-8.74781 -12.7925,-11.0725zM114.9175,101.8025l17.0925,6.9875c-3.18469,2.365 -8.04906,6.11406 -13.545,11.61c-4.67625,4.67625 -7.69969,8.73438 -9.675,11.5025l-6.9875,-16.985c0.63156,-1.3975 2.12313,-4.48812 5.375,-7.74c3.25188,-3.25187 6.35594,-4.74344 7.74,-5.375zM32.5725,111.9075c2.0425,1.505 9.09719,6.73219 15.265,12.9c6.18125,6.18125 10.91125,12.83281 12.255,14.7275l-0.1075,0.215l-7.955,19.2425c-2.33812,-6.00656 -6.81281,-15.09031 -15.3725,-23.65c-8.6,-8.6 -17.7375,-12.95375 -23.7575,-15.265l19.35,-8.0625zM139.535,111.9075l0.215,0.1075l19.135,7.955c-5.95281,2.27094 -14.835,6.665 -23.5425,15.3725c-8.7075,8.7075 -13.08812,17.58969 -15.3725,23.5425l-7.955,-19.135l-0.1075,-0.3225c1.24969,-1.8275 5.29438,-7.65937 11.61,-13.975c6.50375,-6.50375 14.0825,-12.12062 16.0175,-13.545zM86,116.53c4.01781,0 7.72656,0.86 9.46,1.29l6.665,16.2325c-4.09844,-0.80625 -9.97062,-1.72 -16.125,-1.72c-6.22156,0 -12.1475,0.98094 -16.2325,1.8275l6.7725,-16.34c1.72,-0.43 5.44219,-1.29 9.46,-1.29zM86,139.32c7.37719,0 16.15188,1.92156 19.4575,2.6875l0.1075,0.3225h0.1075l7.8475,19.135c-5.96625,-2.76812 -15.5875,-6.235 -27.52,-6.235c-11.9325,0 -21.55375,3.46688 -27.52,6.235l7.8475,-19.135h0.1075l0.1075,-0.3225c3.30563,-0.76594 12.08031,-2.6875 19.4575,-2.6875z"></path></g></g></svg>